<svg xmlns="http://www.w3.org/2000/svg" viewBox="0 0 100 100"><path style="text-indent:0;text-align:start;line-height:normal;text-transform:none;block-progression:tb;marker:none;-inkscape-font-specification:Sans" d="M27 6a2 2 0 0 0-2 2c0 .781.308 1.268.563 2 .943 2.926.365 3.91-.407 5.844C24.522 17.306 24 19.18 24 21c0 1.008.09 1.882.313 3 .33 1.528.53 2.169.968 3 .347.595.981 1 1.719 1a2 2 0 0 0 2-2c0-.781-.308-1.268-.563-2-.401-1.247-.516-2.14-.468-2.906 0-2.863 2.002-5.442 2.031-8.094 0-1.008-.09-1.882-.313-3-.33-1.528-.53-2.169-.968-3-.347-.595-.981-1-1.719-1zm17 0a2 2 0 0 0-2 2c0 .781.308 1.268.563 2 .943 2.926.365 3.91-.407 5.844C41.522 17.306 41 19.18 41 21c0 1.008.09 1.882.313 3 .33 1.528.53 2.169.968 3 .347.595.981 1 1.719 1a2 2 0 0 0 2-2c0-.781-.308-1.268-.563-2-.401-1.247-.516-2.14-.468-2.906 0-2.863 2.002-5.442 2.031-8.094 0-1.008-.09-1.882-.313-3-.33-1.528-.53-2.169-.968-3-.347-.595-.981-1-1.719-1zm17 0a2 2 0 0 0-2 2c0 .781.308 1.268.563 2 .943 2.926.365 3.91-.407 5.844C58.522 17.306 58 19.18 58 21c0 1.008.09 1.882.313 3 .33 1.528.53 2.169.968 3 .347.595.981 1 1.719 1a2 2 0 0 0 2-2c0-.781-.308-1.268-.563-2-.401-1.247-.516-2.14-.468-2.906 0-2.863 2.002-5.442 2.031-8.094 0-1.008-.09-1.882-.313-3-.33-1.528-.53-2.169-.968-3-.347-.595-.981-1-1.719-1zM12 38v32c0 8.864 7.136 16 16 16h32a15.953 15.953 0 0 0 14.844-10h11.5C90.552 76 94 72.552 94 68.344V48.656C94 44.448 90.552 41 86.344 41H76v-3H12zm64 7h10.344C88.414 45 90 46.586 90 48.656v19.688C90 70.414 88.414 72 86.344 72h-10.5c.082-.662.156-1.315.156-2V45zM8 90c-1.108 0-2 .892-2 2s.892 2 2 2h72c1.108 0 2-.892 2-2s-.892-2-2-2H8z" color="#000" font-family="Sans" font-weight="400" overflow="visible"/></svg>